<?xml version="1.0" encoding="utf-8"?><svg viewBox="0 0 502.66 502.66" xmlns="http://www.w3.org/2000/svg" xmlns:xlink="http://www.w3.org/1999/xlink"><style>:root>svg{display:none}:root>svg:target{display:block}</style><svg fill="none" viewBox="0 0 26 26" id="arrow-next" xmlns="http://www.w3.org/2000/svg"><path d="M10.833 20.583A1.084 1.084 0 0110 18.807L14.852 13l-4.68-5.817a1.084 1.084 0 01.163-1.528 1.082 1.082 0 011.582.163l5.232 6.5a1.083 1.083 0 010 1.375l-5.417 6.5a1.083 1.083 0 01-.899.39z" fill="#252B31"/></svg><svg fill="none" viewBox="0 0 26 26" id="arrow-prev" xmlns="http://www.w3.org/2000/svg"><path d="M14.982 20.583a1.084 1.084 0 01-.845-.4l-5.232-6.5a1.084 1.084 0 010-1.376l5.417-6.5a1.085 1.085 0 111.668 1.386L11.148 13l4.68 5.807a1.084 1.084 0 01-.845 1.776z" fill="#252B31"/></svg><svg viewBox="0 0 502.664 502.664" id="icon" xmlns="http://www.w3.org/2000/svg"><g fill="#010002"><path d="M153.821 358.226L0 274.337v-46.463l153.821-83.414v54.574L46.636 250.523l107.185 53.431v54.272zM180.094 387.584L282.103 115.08h32.227L212.084 387.584h-31.99zM348.843 358.226v-54.272l107.164-52.999-107.164-52.59v-53.927l153.821 83.522v46.183l-153.821 84.083z"/></g></svg><svg fill="none" viewBox="0 0 35 35" id="icon-architecture" xmlns="http://www.w3.org/2000/svg"><path d="M9.275 27.387l.365 3.238 2.362-2.246 4.04-11.083a5.71 5.71 0 01-2.581-1.43L9.275 27.388zm12.265-11.52a5.786 5.786 0 01-2.581 1.429l4.04 11.083 2.362 2.246.379-3.238-4.2-11.52zm.335-4.2c0-1.896-1.225-3.5-2.916-4.113V4.375h-2.917v3.18c-1.692.612-2.917 2.216-2.917 4.112a4.37 4.37 0 004.375 4.375 4.37 4.37 0 004.375-4.375zM17.5 13.125a1.463 1.463 0 01-1.458-1.458c0-.802.656-1.459 1.458-1.459.802 0 1.459.657 1.459 1.459s-.657 1.458-1.459 1.458z" fill="#252B31"/></svg><svg fill="none" viewBox="0 0 40 40" id="icon-developer" xmlns="http://www.w3.org/2000/svg"><path d="M35 26.667v-20H5v20h30zm0-23.334a3.333 3.333 0 013.333 3.334v20A3.334 3.334 0 0135 30H23.333v3.333h3.334v3.334H13.333v-3.334h3.334V30H5a3.333 3.333 0 01-3.333-3.333v-20A3.322 3.322 0 015 3.333h30zM8.333 10h15v8.333h-15V10zM25 10h6.667v3.333H25V10zm6.667 5v8.333H25V15h6.667zM8.333 20H15v3.333H8.333V20zm8.334 0h6.666v3.333h-6.666V20z" fill="#252B31"/></svg><svg viewBox="0 0 24 24" id="icon-figma" xmlns="http://www.w3.org/2000/svg"><path d="M8.5 2a3 3 0 100 6h7a3 3 0 100-6h-7zM15.5 9a3 3 0 100 6 3 3 0 000-6zM5.5 12a3 3 0 013-3h3v6h-3a3 3 0 01-3-3zM8.5 16a3 3 0 103 3v-3h-3z"/></svg><svg viewBox="0 0 20 20" id="icon-github" xmlns="http://www.w3.org/2000/svg"><path fill-rule="evenodd" clip-rule="evenodd" d="M10 0C4.475 0 0 4.475 0 10a9.994 9.994 0 006.838 9.488c.5.087.687-.213.687-.476 0-.237-.013-1.024-.013-1.862-2.512.463-3.162-.612-3.362-1.175-.113-.287-.6-1.175-1.025-1.412-.35-.188-.85-.65-.013-.663.788-.013 1.35.725 1.538 1.025.9 1.512 2.337 1.087 2.912.825.088-.65.35-1.088.638-1.338-2.225-.25-4.55-1.112-4.55-4.937 0-1.088.387-1.987 1.025-2.688-.1-.25-.45-1.274.1-2.65 0 0 .837-.262 2.75 1.026a9.28 9.28 0 012.5-.338c.85 0 1.7.112 2.5.337 1.912-1.3 2.75-1.024 2.75-1.024.55 1.375.2 2.4.1 2.65.637.7 1.025 1.587 1.025 2.687 0 3.838-2.337 4.688-4.562 4.938.362.312.675.912.675 1.85 0 1.337-.013 2.412-.013 2.75 0 .262.188.574.688.474A10.017 10.017 0 0020 10c0-5.525-4.475-10-10-10z"/></svg><svg viewBox="0 0 24 24" id="icon-github-work" xmlns="http://www.w3.org/2000/svg"><path fill-rule="evenodd" clip-rule="evenodd" d="M12 0C5.37 0 0 5.37 0 12c0 5.31 3.435 9.795 8.205 11.385.6.105.825-.255.825-.57 0-.285-.015-1.23-.015-2.235-3.015.555-3.795-.735-4.035-1.41-.135-.345-.72-1.41-1.23-1.695-.42-.225-1.02-.78-.015-.795.945-.015 1.62.87 1.845 1.23 1.08 1.815 2.805 1.305 3.495.99.105-.78.42-1.305.765-1.605-2.67-.3-5.46-1.335-5.46-5.925 0-1.305.465-2.385 1.23-3.225-.12-.3-.54-1.53.12-3.18 0 0 1.005-.315 3.3 1.23.96-.27 1.98-.405 3-.405s2.04.135 3 .405c2.295-1.56 3.3-1.23 3.3-1.23.66 1.65.24 2.88.12 3.18.765.84 1.23 1.905 1.23 3.225 0 4.605-2.805 5.625-5.475 5.925.435.375.81 1.095.81 2.22 0 1.605-.015 2.895-.015 3.3 0 .315.225.69.825.57A12.02 12.02 0 0024 12c0-6.63-5.37-12-12-12z"/></svg><svg viewBox="0 0 20 20" id="icon-instagram" xmlns="http://www.w3.org/2000/svg"><path d="M10 7.396A2.609 2.609 0 007.397 10 2.609 2.609 0 0010 12.604 2.609 2.609 0 0012.604 10 2.609 2.609 0 0010 7.396zM17.81 10c0-1.078.01-2.147-.051-3.223-.06-1.25-.346-2.36-1.26-3.273-.916-.916-2.023-1.2-3.273-1.26-1.078-.06-2.147-.05-3.223-.05-1.078 0-2.146-.01-3.223.05-1.25.06-2.359.346-3.273 1.26-.916.916-1.2 2.023-1.26 3.273-.06 1.078-.05 2.147-.05 3.223s-.01 2.146.05 3.223c.06 1.25.346 2.359 1.26 3.273.916.916 2.023 1.2 3.273 1.26 1.079.06 2.147.05 3.223.05 1.078 0 2.146.01 3.223-.05 1.25-.06 2.36-.346 3.273-1.26.916-.916 1.2-2.023 1.26-3.273.062-1.077.05-2.145.05-3.223zM10 14.006A4 4 0 015.994 10 4 4 0 0110 5.994 4 4 0 0114.006 10 4 4 0 0110 14.006zm4.17-7.24a.934.934 0 110-1.872.934.934 0 110 1.872z"/></svg><svg viewBox="0 0 20 20" id="icon-mail" xmlns="http://www.w3.org/2000/svg"><path d="M18 7.373V14.5a2.5 2.5 0 01-2.5 2.5h-11A2.5 2.5 0 012 14.5V7.373l7.746 4.558a.5.5 0 00.508 0L18 7.373zM15.5 4a2.5 2.5 0 012.485 2.223L10 10.92 2.015 6.223A2.5 2.5 0 014.5 4h11z"/></svg><svg fill="none" viewBox="0 0 23 23" id="icon-menu" xmlns="http://www.w3.org/2000/svg"><path d="M21.083 17.255a.954.954 0 01-.953.953h-7.676a.953.953 0 110-1.907h7.676c.527 0 .953.427.953.954zM21.083 11.5a.954.954 0 01-.953.954H2.87a.953.953 0 110-1.908h17.26c.527 0 .953.428.953.954zM20.13 6.699a.953.953 0 100-1.907H8.62a.953.953 0 100 1.907h11.51z" fill="#252B31"/></svg><svg fill="none" viewBox="0 0 23 23" id="icon-search" xmlns="http://www.w3.org/2000/svg"><path d="M9.583 17.25c1.701 0 3.353-.57 4.693-1.618l4.213 4.213 1.355-1.355-4.213-4.213a7.62 7.62 0 001.62-4.694c0-4.227-3.44-7.666-7.668-7.666-4.227 0-7.666 3.44-7.666 7.666 0 4.227 3.44 7.667 7.666 7.667zm0-13.417a5.756 5.756 0 015.75 5.75 5.756 5.756 0 01-5.75 5.75 5.756 5.756 0 01-5.75-5.75 5.756 5.756 0 015.75-5.75z" fill="#252B31"/><path d="M10.936 8.228c.364.364.564.845.564 1.355h1.917a3.812 3.812 0 00-1.126-2.71c-1.45-1.449-3.966-1.449-5.416 0L8.228 8.23c.729-.726 1.984-.724 2.708-.002z" fill="#252B31"/></svg><svg fill="none" viewBox="0 0 40 40" id="icon-services-support" xmlns="http://www.w3.org/2000/svg"><path d="M34.998 40H5c-1.38 0-2.559-.504-3.535-1.512C.488 37.48 0 36.263 0 34.838c0-1.424.488-2.64 1.465-3.649C2.44 30.181 3.62 29.677 5 29.677h29.998c1.38 0 2.559.504 3.535 1.512.977 1.009 1.465 2.225 1.465 3.65 0 1.424-.488 2.64-1.465 3.649C37.557 39.496 36.38 40 34.998 40zM7.48 32.258c-.69 0-1.276.255-1.758.766A2.58 2.58 0 005 34.86c0 .712.24 1.317.722 1.814a2.355 2.355 0 001.758.746c.69 0 1.283-.248 1.777-.746A2.476 2.476 0 0010 34.86c0-.712-.248-1.324-.743-1.835-.494-.51-1.087-.766-1.777-.766zm25.018 0H17.5c-.703 0-1.295.255-1.777.766a2.58 2.58 0 00-.723 1.835c0 .712.241 1.317.723 1.814a2.378 2.378 0 001.777.746h15c.676 0 1.262-.248 1.757-.746a2.477 2.477 0 00.742-1.814c0-.712-.247-1.324-.742-1.835-.495-.51-1.08-.766-1.758-.766zm-1.25-15.484h-1.562c-.234.941-.612 1.855-1.133 2.742l.742.766c.47.484.704 1.069.704 1.754 0 .686-.235 1.27-.703 1.754a2.28 2.28 0 01-1.7.726c-.664 0-1.23-.242-1.699-.726l-.742-.806a9.678 9.678 0 01-2.656 1.17v1.652c0 .726-.241 1.338-.723 1.835a2.355 2.355 0 01-1.757.746c-.69 0-1.283-.249-1.778-.746-.494-.497-.742-1.109-.742-1.835v-1.653a9.679 9.679 0 01-2.656-1.17l-.781.807a2.279 2.279 0 01-1.7.726c-.663 0-1.23-.242-1.698-.726a2.429 2.429 0 01-.704-1.754c0-.685.235-1.27.704-1.754l.78-.806a9.74 9.74 0 01-1.132-2.702H8.75a2.378 2.378 0 01-1.778-.746c-.481-.497-.722-1.102-.722-1.814 0-.713.24-1.324.722-1.835a2.347 2.347 0 011.778-.766h1.562c.234-.941.612-1.855 1.133-2.742l-.781-.806A2.429 2.429 0 019.96 6.31c0-.685.235-1.27.704-1.754a2.279 2.279 0 011.699-.725c.664 0 1.23.242 1.699.725l.781.847a9.679 9.679 0 012.656-1.17V2.582c0-.7.241-1.304.723-1.815A2.326 2.326 0 0119.98 0c.69 0 1.282.255 1.777.766a2.52 2.52 0 01.742 1.815v1.653a9.8 9.8 0 012.617 1.129l.781-.807a2.279 2.279 0 011.7-.725c.663 0 1.23.242 1.698.725A2.43 2.43 0 0130 6.31a2.43 2.43 0 01-.703 1.755l-.782.766c.547.914.938 1.841 1.172 2.782h1.563c.703 0 1.295.255 1.777.766a2.58 2.58 0 01.722 1.835c0 .712-.247 1.317-.742 1.814-.495.498-1.08.746-1.758.746zM20 9.032c-1.38 0-2.558.504-3.535 1.512C15.488 11.552 15 12.77 15 14.194c0 1.424.489 2.64 1.465 3.649.977 1.008 2.155 1.512 3.535 1.512 1.38 0 2.559-.504 3.535-1.512.977-1.008 1.465-2.225 1.465-3.65 0-1.424-.488-2.64-1.465-3.649-.976-1.008-2.155-1.512-3.535-1.512z" fill="#252B31"/></svg><svg fill="none" viewBox="0 0 45 45" id="icon-skills-cpanel" xmlns="http://www.w3.org/2000/svg"><g clip-path="url(#nclip0_154:1535)"><path d="M14.787 19.983a3.667 3.667 0 00-3.586-2.897H8.6a1.022 1.022 0 00-1.006.766L5.14 27l1.737-.007a1.04 1.04 0 00.999-.752l1.814-6.73h1.392a1.315 1.315 0 110 2.63h-.724c-.493 0-.88.324-1.006.76l-.45 1.673h2.25c2.616 0 4.1-2.545 3.635-4.591zM3.783 21.95h1.308c.485 0 .872-.309 1.006-.766l.436-1.66H3.72c-1.61 0-3.087.992-3.6 2.89A3.652 3.652 0 003.657 27h.872l.499-1.835a.461.461 0 00-.45-.584h-.795c-1.736 0-1.75-2.63 0-2.63zm17.403-2.446h-5.478l-.246.942c-.168.675.317 1.3.999 1.3h4.043c.281 0 .168.303.147.373l-.604 2.236c-.028.099-.064.373-.387.373h-2.454c-.373 0-.373-.556 0-.556h1.519c.478 0 .865-.323.998-.759l.246-.928h-3.403c-2.756 0-3.065 4.486-.049 4.486l4.043.014c.788 0 1.448-.506 1.645-1.252l.985-3.642a2.07 2.07 0 00-2.004-2.587zm23.33-2.42h-1.33a.747.747 0 00-.73.556L39.951 27c1.456 0 2.799-.97 3.157-2.426l1.863-6.905a.458.458 0 00-.456-.583zM27.9 19.526v.008h-3.396l-1.843 6.89a.462.462 0 00.45.584h1.33a.74.74 0 00.73-.548l1.21-4.5h1.392c.879 0 1.505.83 1.273 1.645l-.746 2.812a.454.454 0 00.45.584h1.343c.324 0 .64-.204.725-.549l.618-2.327c.633-2.327-1.118-4.598-3.536-4.598zm6.911 5.246a.371.371 0 01-.358-.471l.562-2.11c.064-.274.26-.421.549-.421h2.313c.183 0 .323.169.274.358l-.049.183c-.042.14-.134.211-.274.211H36.31c-.492 0-.886.323-.998.76l-.246.914h3.754c.738 0 1.428-.465 1.631-1.238l.225-.844a2.052 2.052 0 00-1.99-2.587h-3.325a2.817 2.817 0 00-2.714 2.081l-.76 2.813a2.047 2.047 0 001.99 2.58h4.69a1.04 1.04 0 00.998-.752l.401-1.477h-5.154z" fill="#545454"/></g><defs><clipPath id="nclip0_154:1535"><path fill="#fff" d="M0 0h45v45H0z"/></clipPath></defs></svg><svg fill="none" viewBox="0 0 41 46" id="icon-skills-css" xmlns="http://www.w3.org/2000/svg"><g clip-path="url(#oclip0_154:1505)"><path d="M20.476 45.884L4.199 42.198.572 9.018h39.856l-3.631 33.175-16.321 3.69z" fill="#264DE4"/><path d="M33.688 40.08l3.103-28.35H20.5v31.333l13.188-2.982z" fill="#2965F1"/><path d="M8.887 24.037l.447 4.07H20.5v-4.07H8.887zM7.989 15.8l.453 4.07H20.5V15.8H7.989zM20.5 34.606l-.022.004-5.557-1.223-.355-3.246H9.557l.7 6.39 10.22 2.314.023-.005v-4.234z" fill="#EBEBEB"/><path d="M9.952 0h6.043v2.061h-3.516v2.061h3.516v2.062H9.952V0zM17.204 0h6.043v1.792H19.73v.359h3.516v4.122h-6.043V4.391h3.516v-.358h-3.517V0zM24.456 0h6.043v1.792h-3.516v.359h3.516v4.122h-6.043V4.391h3.516v-.358h-3.516V0z" fill="#000"/><path d="M32.08 24.037l.902-8.237h-12.5v4.07h7.032l-.454 4.167h-6.577v4.07h6.144l-.58 5.277-5.564 1.225v4.234l10.229-2.312.075-.688 1.172-10.714.122-1.092z" fill="#fff"/></g><defs><clipPath id="oclip0_154:1505"><path fill="#fff" transform="translate(.5)" d="M0 0h40v46H0z"/></clipPath></defs></svg><svg fill="none" viewBox="0 0 45 45" id="icon-skills-figma" xmlns="http://www.w3.org/2000/svg"><g clip-path="url(#pclip0_154:1475)"><path d="M30 30a7.5 7.5 0 100-15 7.5 7.5 0 000 15z" fill="#19BCFE"/><path fill-rule="evenodd" clip-rule="evenodd" d="M15 45a7.5 7.5 0 007.5-7.5V30H15a7.5 7.5 0 000 15z" fill="#09CF83"/><path fill-rule="evenodd" clip-rule="evenodd" d="M15 30h7.5V15H15a7.5 7.5 0 000 15z" fill="#A259FF"/><path fill-rule="evenodd" clip-rule="evenodd" d="M15 15h7.5V0H15a7.5 7.5 0 000 15z" fill="#F24E1E"/><path fill-rule="evenodd" clip-rule="evenodd" d="M30 15h-7.5V0H30a7.5 7.5 0 110 15z" fill="#FF7262"/></g><defs><clipPath id="pclip0_154:1475"><path fill="#fff" d="M0 0h45v45H0z"/></clipPath></defs></svg><svg fill="none" viewBox="0 0 45 45" id="icon-skills-git" xmlns="http://www.w3.org/2000/svg"><g clip-path="url(#qclip0_154:1526)"><path d="M44.15 20.494L24.5.85a2.897 2.897 0 00-4.102 0l-4.073 4.08 5.178 5.17a3.437 3.437 0 013.538.829 3.454 3.454 0 01.828 3.559l4.981 4.988a3.43 3.43 0 013.56.82 3.434 3.434 0 010 4.878 3.444 3.444 0 01-5.815-1.757 3.463 3.463 0 01.181-1.985l-4.666-4.644v12.239c.33.162.644.381.916.652a3.462 3.462 0 010 4.879 3.467 3.467 0 01-4.893 0 3.45 3.45 0 011.135-5.632V16.57a3.639 3.639 0 01-1.128-.753 3.434 3.434 0 01-.74-3.765L14.318 6.94.841 20.41a2.922 2.922 0 000 4.101l19.65 19.644a2.896 2.896 0 004.103 0L44.149 24.6a2.897 2.897 0 000-4.102l.002-.004z" fill="#545454"/></g><defs><clipPath id="qclip0_154:1526"><path fill="#fff" d="M0 0h45v45H0z"/></clipPath></defs></svg><svg fill="none" viewBox="0 0 41 46" id="icon-skills-html" xmlns="http://www.w3.org/2000/svg"><g clip-path="url(#rclip0_154:1492)"><path d="M40.428 9.017l-3.631 33.176-16.321 3.69-16.277-3.685L.572 9.018h39.856z" fill="#E44D26"/><path d="M20.5 43.063l13.188-2.982 3.103-28.35H20.5v31.332z" fill="#F16529"/><path d="M13.441 19.87H20.5V15.8H7.989l.119 1.092 1.226 11.214H20.5v-4.07h-6.602l-.457-4.167zM14.566 30.141H9.557l.7 6.39 10.22 2.314.023-.005v-4.234l-.022.004-5.557-1.223-.355-3.246z" fill="#EBEBEB"/><path d="M4.28 0h2.536v2.043h2.32V0h2.535v6.187H9.136V4.116h-2.32v2.071H4.28V0zM15.005 2.052h-2.232V0h7.002v2.052h-2.233v4.135h-2.536V2.052zM20.886 0h2.644l1.626 2.174L26.781 0h2.645v6.187h-2.525V3.121l-1.745 2.2h-.044l-1.745-2.2v3.066h-2.481V0zM30.688 0h2.536v4.142h3.566v2.045h-6.102V0z" fill="#000"/><path d="M20.483 28.106h6.144l-.58 5.278-5.564 1.225v4.234l10.229-2.312.075-.688 1.172-10.714.122-1.092H20.483v4.07zM20.483 19.86v.01h12.052l.1-.915.227-2.063.12-1.092h-12.5v4.06z" fill="#fff"/></g><defs><clipPath id="rclip0_154:1492"><path fill="#fff" transform="translate(.5)" d="M0 0h40v46H0z"/></clipPath></defs></svg><svg fill="none" viewBox="0 0 45 45" id="icon-skills-js" xmlns="http://www.w3.org/2000/svg"><path d="M2.813 2.813h39.374v39.374H2.813V2.813z" fill="#F5DE19"/><path d="M29.263 33.574a4.03 4.03 0 003.656 2.25c1.533 0 2.513-.766 2.513-1.828 0-1.266-1.007-1.718-2.695-2.457l-.925-.396c-2.672-1.138-4.444-2.562-4.444-5.575 0-2.774 2.11-4.888 5.419-4.888a5.47 5.47 0 015.262 2.963l-2.893 1.85a2.515 2.515 0 00-2.375-1.587 1.61 1.61 0 00-1.77 1.587c0 1.11.687 1.56 2.275 2.25l.925.396c3.145 1.349 4.922 2.723 4.922 5.812 0 3.331-2.617 5.157-6.131 5.157a7.108 7.108 0 01-6.743-3.784l3.004-1.75zm-13.071.32c.58 1.032 1.11 1.904 2.38 1.904 1.215 0 1.983-.476 1.983-2.325V20.891h3.7v12.631c0 3.83-2.25 5.575-5.525 5.575a5.744 5.744 0 01-5.55-3.375l3.012-1.827z" fill="#000"/></svg><svg fill="none" viewBox="0 0 45 45" id="icon-skills-scss" xmlns="http://www.w3.org/2000/svg"><path d="M22.74 26.297c-.676.31-1.417.716-2.9 1.53-.563.316-1.151.633-1.698.93-.038-.037-.077-.085-.115-.124-2.935-3.136-8.363-5.351-8.133-9.563.086-1.534.614-5.562 10.425-10.453 8.075-3.98 14.5-2.877 15.61-.431 1.594 3.486-3.445 9.973-11.784 10.914a6.286 6.286 0 01-5.274-1.334c-.442-.479-.508-.507-.671-.411-.269.14-.096.575 0 .824a4.922 4.922 0 003.01 2.368c3.282.709 6.704.37 9.782-.97 5.054-1.955 9-7.393 7.844-11.952-1.16-4.623-8.832-6.147-16.091-3.568a36.563 36.563 0 00-12.361 7.097c-4 3.741-4.632 6.992-4.374 8.354.931 4.833 7.594 7.979 10.266 10.309-.14.077-.259.14-.364.2-1.333.663-6.416 3.32-7.683 6.13-1.438 3.183.231 5.465 1.333 5.772a8.202 8.202 0 008.833-3.578 8.86 8.86 0 00.786-8.156 7.084 7.084 0 011.007-.67c.68-.403 1.329-.8 1.904-1.106a14.732 14.732 0 016.293-1.39c4.565.536 5.466 3.384 5.293 4.584a3.035 3.035 0 01-1.448 2.051c-.317.201-.422.269-.394.412.038.211.191.201.46.163a3.566 3.566 0 002.483-3.173c.141-2.813-2.54-5.898-7.288-5.87a10.902 10.902 0 00-4.143.825c-.211.088-.416.181-.615.282l.008.004zM15.956 37.32c-1.516 1.65-3.625 2.273-4.536 1.746-.985-.563-.595-3.003 1.265-4.748a24.154 24.154 0 013.558-2.656c.221-.14.547-.327.94-.563l.105-.058.23-.14a6.55 6.55 0 01-1.562 6.42z" fill="#CD6799"/></svg><svg fill="none" viewBox="0 0 45 45" id="icon-skills-vcstudio" xmlns="http://www.w3.org/2000/svg"><mask id="ua" style="mask-type:alpha" maskUnits="userSpaceOnUse" x="0" y="0" width="45" height="45"><path d="M31.785 44.754a2.77 2.77 0 002.223-.087l9.226-4.475a2.81 2.81 0 001.157-1.042c.28-.45.43-.971.43-1.503V7.3a2.84 2.84 0 00-.43-1.502 2.81 2.81 0 00-1.157-1.042L34.008.279a2.77 2.77 0 00-3.184.546L13.161 17.07l-7.695-5.887a1.855 1.855 0 00-2.383.107L.616 13.553a1.893 1.893 0 00-.002 2.784l6.672 6.136L.614 28.61a1.894 1.894 0 00.002 2.784l2.467 2.262a1.857 1.857 0 002.383.107l7.695-5.887L30.824 44.12c.273.276.6.491.96.633zm1.838-32.537L20.221 22.473 33.623 32.73V12.217z" fill="#fff"/></mask><g mask="url(#ua)"><path d="M43.262 4.76L34.028.28a2.772 2.772 0 00-3.185.545L.613 28.61a1.893 1.893 0 00.003 2.784l2.469 2.263a1.86 1.86 0 002.385.107l36.402-27.84c1.222-.933 2.976-.055 2.976 1.49v-.108a2.84 2.84 0 00-.43-1.503 2.81 2.81 0 00-1.156-1.041z" fill="#0065A9"/><path d="M43.262 40.184l-9.234 4.482a2.771 2.771 0 01-3.185-.546L.613 16.336a1.893 1.893 0 01.003-2.784l2.469-2.263a1.86 1.86 0 012.385-.107l36.402 27.84c1.222.933 2.976.055 2.976-1.49v.108a2.84 2.84 0 01-.43 1.502c-.28.45-.681.811-1.156 1.042z" fill="#007ACC"/><path d="M33.999 44.67a2.774 2.774 0 01-3.186-.547c1.034 1.042 2.801.304 2.801-1.17V1.997c0-1.474-1.767-2.211-2.8-1.17a2.773 2.773 0 013.185-.546l9.232 4.476c.475.23.877.591 1.157 1.042.281.45.43.97.43 1.502V37.65a2.825 2.825 0 01-1.587 2.545L34 44.67z" fill="#1F9CF0"/><path d="M31.784 44.753a2.77 2.77 0 002.224-.086l9.226-4.476c.475-.23.876-.592 1.157-1.042.28-.45.43-.97.43-1.503V7.3c0-.532-.15-1.053-.43-1.503a2.81 2.81 0 00-1.157-1.042L34.007.278a2.77 2.77 0 00-3.183.547L13.16 17.07l-7.694-5.888a1.855 1.855 0 00-2.383.107L.615 13.552a1.893 1.893 0 00-.002 2.784l6.673 6.137-6.673 6.136a1.894 1.894 0 00.002 2.784l2.468 2.263a1.857 1.857 0 002.383.107l7.694-5.888L30.824 44.12c.273.276.6.491.96.633zm1.84-32.537L20.22 22.473l13.402 10.255V12.217z" fill="url(#upaint0_linear_154:1515)" fill-opacity=".25"/></g><defs><linearGradient id="upaint0_linear_154:1515" x1="22.413" y1="0" x2="22.413" y2="44.945" gradientUnits="userSpaceOnUse"><stop stop-color="#fff"/><stop offset="1" stop-color="#fff" stop-opacity="0"/></linearGradient></defs></svg><svg fill="none" viewBox="0 0 45 45" id="icon-skills-wordpress" xmlns="http://www.w3.org/2000/svg"><g clip-path="url(#vclip0_154:1533)"><path d="M22.695 0C13.839-.015 5.504 5.212 1.679 13.485l10.756.026v1.17c-3.312-.396-3.02 1.316-2.552 3.133l7.06 17.614 5.19-12.109-2.382-5.675c-.865-1.52-.884-3.206-4.424-3.047l.05-1.08 15.775.039v1.209c-1.847.108-4.071-.462-2.892 3.303l6.38 16.683 3.488-9.74c1.142-4.082.067-8.005-1.29-11.852-.755-2.582-.403-4.737 2.98-5.592C34.654 2.32 28.56.01 22.695 0zM44.15 15.401L33.922 41.937c2.825-2.435 5.72-3.321 9.265-10.058 2.357-5.604 2.115-10.796.963-16.478zm-43.554.43C-.402 23.665-.311 25.96 2.16 32.357c3.221 6.127 5.72 7.418 9.264 9.82L.596 15.832zm22.498 9.94l-7.58 18.203c5.32 1.511 10.081 1.322 14.439-.36l-6.86-17.843z" fill="#545454"/></g><defs><clipPath id="vclip0_154:1533"><path fill="#fff" d="M0 0h45v45H0z"/></clipPath></defs></svg><svg viewBox="0 0 20 20" id="icon-telegram" xmlns="http://www.w3.org/2000/svg"><path fill-rule="evenodd" clip-rule="evenodd" d="M20 10c0 5.523-4.477 10-10 10-5.522 0-10-4.477-10-10C0 4.478 4.478 0 10 0c5.523 0 10 4.478 10 10zm-9.642-2.617c-.972.404-2.916 1.241-5.831 2.511-.474.188-.722.373-.744.553-.039.305.343.425.861.587l.22.07c.51.166 1.197.36 1.554.368.324.006.685-.127 1.085-.4 2.723-1.84 4.129-2.769 4.217-2.789.063-.014.15-.032.207.02.059.052.053.15.047.177-.038.16-1.533 1.552-2.308 2.272-.242.224-.413.383-.448.42-.078.08-.158.158-.235.232-.475.457-.83.8.02 1.36.409.27.735.492 1.061.713.356.243.711.485 1.171.786.117.077.228.156.338.234.414.296.786.56 1.246.519.267-.025.543-.276.683-1.025.331-1.772.983-5.608 1.134-7.19.009-.131.003-.263-.017-.394a.422.422 0 00-.143-.27c-.12-.098-.304-.119-.388-.117-.375.007-.952.208-3.73 1.363z"/></svg><svg fill="none" viewBox="0 0 40 40" id="icon-ux-services" xmlns="http://www.w3.org/2000/svg"><path d="M9.292 3.457A1.25 1.25 0 0110 4.583c0 1.384.52 2.18 1.172 3.15l.048.07c.553.824 1.28 1.902 1.28 3.447a4.578 4.578 0 01-2.007 3.792c.319.266.6.595.844.988.793 1.283 1.163 3.245 1.163 6.062 0 2.853-.383 6.28-1.008 9.016-.31 1.36-.695 2.615-1.154 3.557-.228.468-.506.925-.85 1.283-.343.352-.871.727-1.571.727s-1.229-.375-1.57-.727a4.992 4.992 0 01-.85-1.283c-.46-.943-.845-2.197-1.155-3.558a43.417 43.417 0 01-1.009-9.017c0-2.817.37-4.777 1.164-6.06.226-.373.51-.706.843-.988a4.579 4.579 0 01-2.007-3.792c0-.613 0-1.668.639-3.03.625-1.333 1.813-2.865 3.996-4.613a1.25 1.25 0 011.324-.15zM16.667 24.862a9.928 9.928 0 01-2.554-.794c.035-.676.054-1.34.054-1.976 0-.677-.02-1.324-.064-1.94a6.625 6.625 0 002.564 1.305V17.5a2.5 2.5 0 012.5-2.5H25a6.667 6.667 0 00-10.975-5.088c-.288-1.357-.958-2.35-1.387-2.985l-.066-.1A10 10 0 0128.333 15h5.834a2.5 2.5 0 012.5 2.5v15a2.5 2.5 0 01-2.5 2.5h-15a2.5 2.5 0 01-2.5-2.5v-7.638zm3.333 0v6.805h13.333V18.333h-5.568a10.014 10.014 0 01-7.767 6.529H20zm4.108-6.529H20v3.124a6.682 6.682 0 004.108-3.124z" fill="#252B31"/></svg><svg fill="none" viewBox="0 0 40 40" id="icon-verstka" xmlns="http://www.w3.org/2000/svg"><path d="M12.292 27.968l2.083-2.603L7.668 20l6.707-5.365-2.083-2.603-8.334 6.666a1.667 1.667 0 000 2.604l8.334 6.666zm15.416-15.936l-2.083 2.603L32.332 20l-6.707 5.365 2.083 2.603 8.334-6.666a1.667 1.667 0 000-2.604l-8.334-6.666zM24.96 5.36l-6.667 30-3.255-.723 6.667-30 3.255.723z" fill="#252B31"/></svg></svg>